<svg width="16" height="16" viewBox="0 0 16 16" fill="none" xmlns="http://www.w3.org/2000/svg">
<path fill-rule="evenodd" clip-rule="evenodd" d="M7.25 0.5C6.17178 0.500117 5.10928 0.758526 4.15144 1.25359C3.1936 1.74866 2.36829 2.46599 1.7446 3.34552C1.12091 4.22504 0.716998 5.24118 0.566665 6.30887C0.416332 7.37656 0.523958 8.46472 0.880533 9.48227C1.23711 10.4998 1.83225 11.4172 2.61615 12.1575C3.40005 12.8978 4.34989 13.4395 5.38615 13.7374C6.42242 14.0352 7.51496 14.0805 8.57231 13.8694C9.62966 13.6583 10.6211 13.1969 11.4635 12.524L14.2198 15.2803C14.3612 15.4169 14.5507 15.4925 14.7473 15.4908C14.944 15.489 15.1321 15.4102 15.2711 15.2711C15.4102 15.1321 15.489 14.9439 15.4908 14.7473C15.4925 14.5507 15.4169 14.3612 15.2803 14.2198L12.524 11.4635C13.3175 10.4704 13.8144 9.27342 13.9576 8.01033C14.1008 6.74724 13.8844 5.4694 13.3334 4.32387C12.7823 3.17835 11.919 2.21171 10.8428 1.53522C9.76655 0.858731 8.52118 0.49989 7.25 0.5ZM2.75 7.25C2.75 6.65905 2.8664 6.07389 3.09254 5.52793C3.31869 4.98196 3.65016 4.48588 4.06802 4.06802C4.48589 3.65016 4.98196 3.31869 5.52793 3.09254C6.07389 2.8664 6.65905 2.75 7.25 2.75C7.84095 2.75 8.42611 2.8664 8.97208 3.09254C9.51804 3.31869 10.0141 3.65016 10.432 4.06802C10.8498 4.48588 11.1813 4.98196 11.4075 5.52793C11.6336 6.07389 11.75 6.65905 11.75 7.25C11.75 8.44347 11.2759 9.58807 10.432 10.432C9.58807 11.2759 8.44348 11.75 7.25 11.75C6.05653 11.75 4.91194 11.2759 4.06802 10.432C3.22411 9.58807 2.75 8.44347 2.75 7.25Z" fill="white"/>
</svg>
