<svg width="34" height="34" viewBox="0 0 34 34" fill="none" xmlns="http://www.w3.org/2000/svg">
<circle cx="17" cy="17" r="17" fill="#E4B809"/>
<path fill-rule="evenodd" clip-rule="evenodd" d="M12.3679 11.3095C12.455 11.2338 12.5625 11.1857 12.677 11.1712C12.7914 11.1566 12.9075 11.1763 13.0108 11.2278L23.5108 16.4778C23.6078 16.5262 23.6895 16.6007 23.7466 16.6929C23.8036 16.7851 23.8339 16.8914 23.8339 16.9999C23.8339 17.1083 23.8036 17.2146 23.7466 17.3069C23.6895 17.3991 23.6078 17.4736 23.5108 17.522L13.0108 22.772C12.9075 22.8236 12.7913 22.8435 12.6768 22.829C12.5623 22.8146 12.4547 22.7666 12.3675 22.6909C12.2803 22.6153 12.2175 22.5155 12.1871 22.4042C12.1566 22.2929 12.1599 22.175 12.1964 22.0655L13.6909 17.5832H16.8333C16.9881 17.5832 17.1364 17.5218 17.2458 17.4124C17.3552 17.303 17.4167 17.1546 17.4167 16.9999C17.4167 16.8452 17.3552 16.6968 17.2458 16.5874C17.1364 16.478 16.9881 16.4165 16.8333 16.4165H13.6909L12.1958 11.9342C12.1595 11.8248 12.1564 11.707 12.1869 11.5958C12.2174 11.4846 12.2808 11.385 12.3679 11.3095Z" fill="#1F1F1F"/>
</svg>
